nColumns=19
nRows=79
DataType=double
version=3
OpenSimVersion=4.1
endheader
time	ground_force_1_vx	ground_force_1_vy	ground_force_1_vz	ground_force_1_px	ground_force_1_py	ground_force_1_pz	ground_force_1_mx	ground_force_1_my	ground_force_1_mz	ground_force_2_vx	ground_force_2_vy	ground_force_2_vz	ground_force_2_px	ground_force_2_py	ground_force_2_pz	ground_force_2_mx	ground_force_2_my	ground_force_2_mz
1.24167	0	0	0	-0.000834702	0	0.000126697	0	0	0	-0.0847019	12.4617	-1.53155	-0.000834702	0	0.000126697	0	0	0
1.25	0	0	0	-0.000834702	0	0.000126697	0	0	0	-5.15003	27.0241	-4.77789	1.11316	0	-0.262042	0	-0.654722	0
1.25833	0	0	0	-0.000834702	0	0.000126697	0	0	0	-14.5216	77.7068	-8.15697	1.13088	0	-0.319531	-0	2.36866	-0
1.26667	0	0	0	-0.000834702	0	0.000126697	0	0	0	-29.7785	207.957	-11.1086	1.14929	0	-0.334028	-0	2.09206	-0
1.275	0	0	0	-0.000834702	0	0.000126697	0	0	0	-49.9892	456.77	-12.2152	1.15234	0	-0.334739	0	-3.73707	0
1.28333	0	0	0	-0.000834702	0	0.000126697	0	0	0	-77.3659	793.178	-11.077	1.14667	0	-0.330921	0	-12.337	0
1.29167	0	0	0	-0.000834702	0	0.000126697	0	0	0	-117.517	1084.15	-12.1218	1.13706	0	-0.32635	0	-14.9529	0
1.3	0	0	0	-0.000834702	0	0.000126697	0	0	0	-166.726	1215.55	-22.5825	1.1245	0	-0.323852	0	-4.2706	0
1.30833	0	0	0	-0.000834702	0	0.000126697	0	0	0	-211.723	1228.69	-41.3375	1.10801	0	-0.325587	-0	14.7076	-0
1.31667	0	0	0	-0.000834702	0	0.000126697	0	0	0	-241.63	1250.95	-52.7435	1.0866	0	-0.329714	-0	24.9094	-0
1.325	0	0	0	-0.000834702	0	0.000126697	0	0	0	-246.423	1350.16	-40.9924	1.06092	0	-0.330867	-0	13.9609	-0
1.33333	0	0	0	-0.000834702	0	0.000126697	0	0	0	-217.909	1503.41	-11.1168	1.03206	0	-0.328777	0	-9.93274	0
1.34167	0	0	0	-0.000834702	0	0.000126697	0	0	0	-163.021	1647.1	13.8891	1.00208	0	-0.327926	0	-24.6949	0
1.35	0	0	0	-0.000834702	0	0.000126697	0	0	0	-102.554	1734.92	19.6118	0.973248	0	-0.33043	0	-18.5233	0
1.35833	0	0	0	-0.000834702	0	0.000126697	0	0	0	-53.1799	1764.48	15.4327	0.946206	0	-0.334157	0	-2.28787	0
1.36667	0	0	0	-0.000834702	0	0.000126697	0	0	0	-16.6176	1759.21	18.7133	0.92044	0	-0.335924	-0	5.02045	-0
1.375	0	0	0	-0.000834702	0	0.000126697	0	0	0	15.0858	1730.89	31.2344	0.895317	0	-0.335581	0	-1.62375	0
1.38333	0	0	0	-0.000834702	0	0.000126697	0	0	0	49.6993	1670.62	39.3548	0.870476	0	-0.335736	0	-11.0396	0
1.39167	0	0	0	-0.000834702	0	0.000126697	0	0	0	87.0386	1573.69	33.9687	0.845358	0	-0.33749	0	-12.7652	0
1.4	0	0	0	-0.000834702	0	0.000126697	0	0	0	121.485	1448.77	20.767	0.819655	0	-0.338964	0	-8.6365	0
1.40833	0	0	0	-0.000834702	0	0.000126697	0	0	0	150	1303.65	9.3076	0.793442	0	-0.337848	0	-5.82423	0
1.41667	0	0	0	-0.000834702	0	0.000126697	0	0	0	175.979	1132.94	-0.0474134	0.764808	0	-0.334536	0	-4.84356	0
1.425	0	0	0	-0.000834702	0	0.000126697	0	0	0	201.145	928.19	-12.9087	0.729518	0	-0.332088	0	-0.312916	0
1.43333	0	0	0	-0.000834702	0	0.000126697	0	0	0	214.867	704.696	-28.5811	0.687323	0	-0.332745	-0	8.40704	-0
1.44167	0	0	0	-0.000834702	0	0.000126697	0	0	0	200.933	498.666	-37.7319	0.648137	0	-0.334884	-0	13.6314	-0
1.45	0	0	0	-0.000834702	0	0.000126697	0	0	0	161.602	334.533	-33.4012	0.625445	0	-0.333336	-0	8.66318	-0
1.45833	0	0	0	-0.000834702	0	0.000126697	0	0	0	113.492	213.847	-20.1409	0.626895	0	-0.324165	0	-2.85819	0
1.46667	0	0	0	-0.000834702	0	0.000126697	0	0	0	69.8233	126.26	-9.02365	0.646672	0	-0.311243	0	-10.4974	0
1.475	0	0	0	-0.000834702	0	0.000126697	0	0	0	36.1888	63.756	-5.48805	0.663238	0	-0.30481	0	-8.85198	0
1.48333	0	0	0	-0.000834702	0	0.000126697	0	0	0	13.697	25.5375	-5.5267	0.660436	0	-0.308047	0	-2.61892	0
1.49167	0	0	0	-0.000834702	0	0.000126697	0	0	0	2.79332	10.4615	-3.24446	-0.000834702	0	0.000126697	0	0	0
1.5	0	0	0	-0.000834702	0	0.000126697	0	0	0	0	0	0	-0.000834702	0	0.000126697	0	0	0
1.50833	0	0	0	-0.000834702	0	0.000126697	0	0	0	0	0	0	-0.000834702	0	0.000126697	0	0	0
1.51667	0	0	0	-0.000834702	0	0.000126697	0	0	0	0	0	0	-0.000834702	0	0.000126697	0	0	0
1.525	0	0	0	-0.000834702	0	0.000126697	0	0	0	0	0	0	-0.000834702	0	0.000126697	0	0	0
1.53333	0	0	0	-0.000834702	0	0.000126697	0	0	0	0	0	0	-0.000834702	0	0.000126697	0	0	0
1.54167	0.523348	10.3822	2.83924	-0.000834702	0	0.000126697	0	0	0	0	0	0	-0.000834702	0	0.000126697	0	0	0
1.55	0	0	0	-0.000834702	0	0.000126697	0	0	0	0	0	0	-0.000834702	0	0.000126697	0	0	0
1.55833	0	0	0	-0.000834702	0	0.000126697	0	0	0	0	0	0	-0.000834702	0	0.000126697	0	0	0
1.56667	0	0	0	-0.000834702	0	0.000126697	0	0	0	0	0	0	-0.000834702	0	0.000126697	0	0	0
1.575	0.975181	14.0607	-2.18502	-0.000834702	0	0.000126697	0	0	0	0	0	0	-0.000834702	0	0.000126697	0	0	0
1.58333	-4.44607	38.2903	-3.13925	1.12829	0	-0.221901	0	-1.87982	0	0	0	0	-0.000834702	0	0.000126697	0	0	0
1.59167	-13.4421	102.904	-5.44412	1.1249	0	-0.265849	-0	3.50695	-0	0	0	0	-0.000834702	0	0.000126697	0	0	0
1.6	-22.7651	250.389	-7.40485	1.12912	0	-0.283781	-0	10.5423	-0	0	0	0	-0.000834702	0	0.000126697	0	0	0
1.60833	-32.1742	511.534	-3.76056	1.12733	0	-0.289143	-0	12.3004	-0	0	0	0	-0.000834702	0	0.000126697	0	0	0
1.61667	-51.8794	839.922	9.11937	1.11921	0	-0.29058	-0	3.952	-0	0	0	0	-0.000834702	0	0.000126697	0	0	0
1.625	-94.8159	1110.04	27.0861	1.10839	0	-0.291285	0	-10.1902	0	0	0	0	-0.000834702	0	0.000126697	0	0	0
1.63333	-156.144	1250	38.6205	1.09584	0	-0.292335	0	-18.6298	0	0	0	0	-0.000834702	0	0.000126697	0	0	0
1.64167	-210.485	1322.6	34.8068	1.07856	0	-0.294021	0	-13.7015	0	0	0	0	-0.000834702	0	0.000126697	0	0	0
1.65	-231.09	1416.9	19.3171	1.05384	0	-0.29555	0	-0.007444	0	0	0	0	-0.000834702	0	0.000126697	0	0	0
1.65833	-209.342	1550.11	4.86371	1.02431	0	-0.295555	-0	10.2804	-0	0	0	0	-0.000834702	0	0.000126697	0	0	0
1.66667	-164.028	1682.61	-0.899588	0.995405	0	-0.294087	-0	10.4317	-0	0	0	0	-0.000834702	0	0.000126697	0	0	0
1.675	-116.382	1769.54	-1.97635	0.968983	0	-0.292631	-0	5.03011	-0	0	0	0	-0.000834702	0	0.000126697	0	0	0
1.68333	-70.9498	1794.58	-5.45129	0.943543	0	-0.292175	-0	2.43709	-0	0	0	0	-0.000834702	0	0.000126697	0	0	0
1.69167	-26.886	1769.34	-10.894	0.917929	0	-0.292259	-0	4.61843	-0	0	0	0	-0.000834702	0	0.000126697	0	0	0
1.7	12.5174	1712.25	-11.9976	0.892108	0	-0.291753	-0	6.95559	-0	0	0	0	-0.000834702	0	0.000126697	0	0	0
1.70833	45.8685	1628.94	-6.13011	0.866656	0	-0.290548	-0	5.99819	-0	0	0	0	-0.000834702	0	0.000126697	0	0	0
1.71667	78.4513	1516	2.87939	0.84117	0	-0.289953	-0	3.33986	-0	0	0	0	-0.000834702	0	0.000126697	0	0	0
1.725	115.117	1371.85	11.4416	0.814195	0	-0.290988	-0	1.54158	-0	0	0	0	-0.000834702	0	0.000126697	0	0	0
1.73333	155.071	1199.46	20.5926	0.784265	0	-0.292977	0	-0.058571	0	0	0	0	-0.000834702	0	0.000126697	0	0	0
1.74167	194.219	1006.46	31.5415	0.750101	0	-0.294592	0	-3.29705	0	0	0	0	-0.000834702	0	0.000126697	0	0	0
1.75	221.175	806.065	40.7165	0.713157	0	-0.295319	0	-7.10573	0	0	0	0	-0.000834702	0	0.000126697	0	0	0
1.75833	219.268	614.302	42.7608	0.677996	0	-0.295605	0	-8.22113	0	0	0	0	-0.000834702	0	0.000126697	0	0	0
1.76667	187.131	442.509	36.8692	0.647319	0	-0.296025	0	-5.48282	0	0	0	0	-0.000834702	0	0.000126697	0	0	0
1.775	140.919	298.101	27.3773	0.623397	0	-0.295461	0	-1.30242	0	0	0	0	-0.000834702	0	0.000126697	0	0	0
1.78333	96.6566	185.769	18.7259	0.611127	0	-0.290132	-0	1.3823	-0	0	0	0	-0.000834702	0	0.000126697	0	0	0
1.79167	59.9128	105.165	11.9915	0.618013	0	-0.276321	-0	2.02635	-0	0	0	0	-0.000834702	0	0.000126697	0	0	0
1.8	31.8864	52.2764	6.42936	0.655839	0	-0.2526	-0	1.74116	-0	0	0	0	-0.000834702	0	0.000126697	0	0	0
1.80833	13.8321	23.1425	2.33754	0.758111	0	-0.207545	-0	0.997898	-0	0	0	0	-0.000834702	0	0.000126697	0	0	0
1.81667	4.92307	12.3794	0.832165	-0.000834702	0	0.000126697	0	0	0	0	0	0	-0.000834702	0	0.000126697	0	0	0
1.825	1.39174	10.8209	1.55376	-0.000834702	0	0.000126697	0	0	0	0	0	0	-0.000834702	0	0.000126697	0	0	0
1.83333	0.382903	10.1262	2.42381	-0.000834702	0	0.000126697	0	0	0	0	0	0	-0.000834702	0	0.000126697	0	0	0
1.84167	0	0	0	-0.000834702	0	0.000126697	0	0	0	0	0	0	-0.000834702	0	0.000126697	0	0	0
1.85	0	0	0	-0.000834702	0	0.000126697	0	0	0	0	0	0	-0.000834702	0	0.000126697	0	0	0
1.85833	0	0	0	-0.000834702	0	0.000126697	0	0	0	0	0	0	-0.000834702	0	0.000126697	0	0	0
1.86667	0	0	0	-0.000834702	0	0.000126697	0	0	0	0	0	0	-0.000834702	0	0.000126697	0	0	0
1.875	0	0	0	-0.000834702	0	0.000126697	0	0	0	0.78823	10.1539	2.0751	-0.000834702	0	0.000126697	0	0	0
1.88333	0	0	0	-0.000834702	0	0.000126697	0	0	0	0	0	0	-0.000834702	0	0.000126697	0	0	0
1.89167	0	0	0	-0.000834702	0	0.000126697	0	0	0	0	0	0	-0.000834702	0	0.000126697	0	0	0
